<svg width="32" height="32" viewBox="0 0 32 32" fill="none" xmlns="http://www.w3.org/2000/svg">
<g clip-path="url(#clip0_18_244)">
<path d="M21.9286 31.5195C19.4381 31.5195 16.9754 31.0639 14.6089 30.1656C12.3492 29.3077 9.9984 28.8727 7.62204 28.8727C5.24568 28.8727 2.89487 29.3076 0.635139 30.1656C0.490948 30.2203 0.32932 30.2006 0.202504 30.1131C0.0757516 30.0256 0 29.8814 0 29.7273V17.6088C0 17.4141 0.120378 17.2397 0.302382 17.1705C4.59179 15.5421 9.16813 15.3769 13.5367 16.6927C13.7846 16.7673 13.925 17.0288 13.8504 17.2767C13.7757 17.5246 13.5142 17.6649 13.2663 17.5903C9.20001 16.3656 4.94404 16.4858 0.937458 17.935V29.0593C3.10807 28.3131 5.35355 27.9351 7.62198 27.9351C10.1125 27.9351 12.5751 28.3906 14.9416 29.289C17.2014 30.1469 19.5522 30.5819 21.9285 30.5819C24.1992 30.5819 26.4462 30.1849 28.6131 29.4011V18.2767C26.4852 19.0083 24.2844 19.386 22.061 19.4004C19.617 19.417 17.1951 18.993 14.8639 18.1419C14.6208 18.0532 14.4956 17.784 14.5844 17.5408C14.6731 17.2977 14.9419 17.1725 15.1855 17.2612C17.4112 18.0738 19.7221 18.4779 22.0548 18.4629C24.3882 18.4477 26.6964 18.0129 28.9154 17.1705C29.0597 17.1158 29.2213 17.1354 29.3481 17.2229C29.4748 17.3104 29.5506 17.4547 29.5506 17.6087V29.7272C29.5506 29.9219 29.4302 30.0964 29.2482 30.1655C26.8818 31.0639 24.4191 31.5195 21.9286 31.5195ZM19.9917 28.2389C19.7439 28.2389 19.4909 28.2306 19.2334 28.2137C17.6043 28.1071 16.048 27.5868 14.6089 27.0405C13.177 26.4969 11.6963 25.9348 10.2236 25.7355L9.82283 25.6816C8.26161 25.4721 6.91321 25.2911 5.93056 24.9076C4.7366 24.4417 4.15621 23.6887 4.15621 22.6055C4.15621 21.7981 4.48503 21.0635 5.10705 20.4808C6.18482 19.4713 8.08349 18.9759 10.3171 19.1224C11.9461 19.229 13.5025 19.7493 14.9416 20.2956C16.3735 20.8392 17.8541 21.4012 19.327 21.6006C19.5835 21.6352 19.7633 21.8714 19.7287 22.1279C19.6939 22.3844 19.4585 22.5645 19.2013 22.5296C17.6218 22.3159 16.0902 21.7344 14.6089 21.172C13.2379 20.6516 11.7616 20.1564 10.2559 20.0578C8.28024 19.9285 6.63721 20.3321 5.748 21.165C5.31386 21.5716 5.09373 22.0563 5.09373 22.6054C5.09373 24.0344 6.75808 24.3243 9.94753 24.7523L10.3493 24.8064C11.9286 25.0201 13.4603 25.6016 14.9417 26.1639C16.3126 26.6844 17.7888 27.1796 19.2947 27.2781C21.2704 27.4075 22.9133 27.0039 23.8026 26.171C24.2367 25.7643 24.4568 25.2796 24.4568 24.7305C24.4568 23.6653 23.5888 23.1734 21.0166 22.7814C20.7607 22.7424 20.5849 22.5033 20.6239 22.2474C20.6629 21.9914 20.9027 21.8159 21.1579 21.8546C23.3015 22.1813 25.3944 22.6725 25.3944 24.7305C25.3944 25.5378 25.0655 26.2725 24.4435 26.8552C23.49 27.7484 21.8937 28.2389 19.9917 28.2389ZM15.0211 15.6522C15.0198 15.6522 15.0186 15.6522 15.0173 15.6522C14.7594 15.6502 14.5518 15.4403 14.5522 15.1828C14.5522 15.1818 14.5522 15.1808 14.5522 15.1798L14.5907 10.3049C14.6117 9.88162 14.4823 9.65162 14.0291 9.39842L12.2631 8.4114C10.2312 7.27581 9.46845 4.70988 10.5627 2.6914C11.1051 1.69113 12.0051 0.965867 13.0972 0.649235C14.1897 0.332604 15.3377 0.463731 16.3304 1.01849C17.3177 1.57038 17.9311 2.61584 17.9311 3.74705V4.06118L24.3665 7.65782C24.5925 7.78414 24.6733 8.06971 24.547 8.29571C24.4207 8.52165 24.1351 8.60253 23.9091 8.47622L17.9311 5.13521V8.35721C22.3615 10.8333 28.6595 14.3532 28.9704 14.5268C29.6471 14.9051 30.5058 14.6622 30.884 13.9853C31.2624 13.3084 31.0194 12.45 30.3425 12.0717L25.485 9.35692C25.2591 9.23061 25.1783 8.94504 25.3045 8.71903C25.4308 8.49303 25.7163 8.41221 25.9424 8.53853L30.7998 11.2532C31.9281 11.8838 32.3329 13.3145 31.7024 14.4427C31.0718 15.5707 29.6411 15.9756 28.5129 15.3451C28.199 15.1697 21.7763 11.5801 17.3402 9.10085H16.7491C16.1074 9.10085 15.5281 9.65293 15.5281 10.3241L15.4897 15.1871C15.4877 15.4448 15.2782 15.6522 15.0211 15.6522ZM14.2774 1.41819C13.9705 1.41819 13.6616 1.46169 13.3583 1.54969C12.509 1.79595 11.8088 2.36008 11.387 3.13829C10.5359 4.70807 11.1342 6.70643 12.7206 7.59301L14.4866 8.58003C14.7098 8.70478 14.8967 8.84354 15.0478 8.99723C15.2803 8.69959 15.5888 8.46403 15.9434 8.32021C14.3945 7.45451 13.3026 6.84431 13.1777 6.77449C12.6312 6.46911 12.2363 5.9691 12.0659 5.36671C11.8954 4.76432 11.9698 4.13156 12.2752 3.58511C12.9058 2.45696 14.3366 2.05208 15.4646 2.68265L15.9152 2.93447C16.1412 3.06079 16.222 3.34636 16.0957 3.57236C15.9695 3.79837 15.6838 3.87924 15.4578 3.75286L15.0073 3.50111C14.3305 3.12279 13.472 3.36567 13.0936 4.04256C12.9103 4.37044 12.8657 4.75007 12.968 5.11152C13.0703 5.47296 13.3072 5.77297 13.6352 5.95622C13.7755 6.03466 15.1356 6.7948 16.9937 7.83326V3.74705C16.9937 2.95516 16.5643 2.22321 15.873 1.83689C15.3766 1.55944 14.8301 1.41819 14.2774 1.41819Z" fill="black"/>
</g>
<defs>
<clipPath id="clip0_18_244">
<rect width="32" height="32" fill="white"/>
</clipPath>
</defs>
</svg>
